<svg width="512" height="512" viewBox="0 0 512 512" fill="none" xmlns="http://www.w3.org/2000/svg">
<g clip-path="url(#clip0_229_66)">
<path d="M448 16C474.464 16 496 37.536 496 64V448C496 474.464 474.464 496 448 496H64C37.536 496 16 474.464 16 448V64C16 37.536 37.536 16 64 16H448ZM448 0H64C28.8 0 0 28.8 0 64V448C0 483.2 28.8 512 64 512H448C483.2 512 512 483.2 512 448V64C512 28.8 483.2 0 448 0Z" fill="#050505"/>
<path d="M388.784 382.736V284.544C388.784 231.936 360.704 207.456 323.248 207.456C293.024 207.456 279.488 224.08 271.952 235.744V211.472H215.024C215.776 227.552 215.024 382.736 215.024 382.736H271.952V287.088C271.952 281.984 272.32 276.864 273.824 273.216C277.936 262.992 287.296 252.4 303.024 252.4C323.632 252.4 331.872 268.096 331.872 291.12V382.752L388.784 382.736ZM155.04 188.096C174.88 188.096 187.248 174.928 187.248 158.496C186.88 141.696 174.88 128.912 155.408 128.912C135.936 128.912 123.216 141.696 123.216 158.496C123.216 174.944 135.568 188.096 154.688 188.096H155.04ZM183.504 382.736V211.472H126.592V382.736H183.504Z" fill="#050505"/>
</g>
<defs>
<clipPath id="clip0_229_66">
<rect width="512" height="512" fill="white"/>
</clipPath>
</defs>
</svg>
